<mxfile host="app.diagrams.net" modified="2024-01-10T20:16:50.060Z" agent="Mozilla/5.0 (Windows NT 10.0; Win64; x64) AppleWebKit/537.36 (KHTML, like Gecko) Chrome/120.0.0.0 Safari/537.36" etag="ncARZ0kltV-hHdMpAX85" version="22.1.18" type="github">
  <diagram name="Page-1" id="n7nwlHuQZ8hJlV3V-fya">
    <mxGraphModel dx="1035" dy="562" grid="1" gridSize="10" guides="1" tooltips="1" connect="1" arrows="1" fold="1" page="1" pageScale="1" pageWidth="850" pageHeight="1100" math="0" shadow="0">
      <root>
        <mxCell id="0" />
        <mxCell id="1" parent="0" />
        <mxCell id="NwYy4THHCrTFuShZawKr-1" value="Region : US East (N. Virginia) us-east-1" style="points=[[0,0],[0.25,0],[0.5,0],[0.75,0],[1,0],[1,0.25],[1,0.5],[1,0.75],[1,1],[0.75,1],[0.5,1],[0.25,1],[0,1],[0,0.75],[0,0.5],[0,0.25]];outlineConnect=0;html=1;whiteSpace=wrap;fontSize=12;fontStyle=0;container=1;pointerEvents=0;collapsible=0;recursiveResize=0;shape=mxgraph.aws4.group;grIcon=mxgraph.aws4.group_region;verticalAlign=top;align=left;spacingLeft=30;dashed=1;" vertex="1" parent="1">
          <mxGeometry x="50" y="20" width="1110" height="840" as="geometry" />
        </mxCell>
        <mxCell id="NwYy4THHCrTFuShZawKr-2" value="&lt;b&gt;&lt;font color=&quot;#660000&quot;&gt;DEV VPC : 10.0.0.0/16&lt;/font&gt;&lt;/b&gt;" style="points=[[0,0],[0.25,0],[0.5,0],[0.75,0],[1,0],[1,0.25],[1,0.5],[1,0.75],[1,1],[0.75,1],[0.5,1],[0.25,1],[0,1],[0,0.75],[0,0.5],[0,0.25]];outlineConnect=0;html=1;whiteSpace=wrap;fontSize=12;fontStyle=0;container=1;pointerEvents=0;collapsible=0;recursiveResize=0;shape=mxgraph.aws4.group;grIcon=mxgraph.aws4.group_vpc2;verticalAlign=top;align=left;spacingLeft=30;dashed=0;fillColor=default;" vertex="1" parent="NwYy4THHCrTFuShZawKr-1">
          <mxGeometry x="30" y="30" width="850" height="690" as="geometry" />
        </mxCell>
        <mxCell id="NwYy4THHCrTFuShZawKr-3" value="1" style="ellipse;whiteSpace=wrap;html=1;aspect=fixed;strokeWidth=2;fontFamily=Tahoma;spacingBottom=4;spacingRight=2;strokeColor=#6c8ebf;fillColor=#dae8fc;gradientColor=#7ea6e0;" vertex="1" parent="NwYy4THHCrTFuShZawKr-2">
          <mxGeometry x="-15" y="30" width="30" height="30" as="geometry" />
        </mxCell>
        <mxCell id="NwYy4THHCrTFuShZawKr-8" value="2" style="ellipse;whiteSpace=wrap;html=1;aspect=fixed;strokeWidth=2;fontFamily=Tahoma;spacingBottom=4;spacingRight=2;strokeColor=#6c8ebf;fillColor=#dae8fc;gradientColor=#7ea6e0;" vertex="1" parent="NwYy4THHCrTFuShZawKr-2">
          <mxGeometry x="-5" y="350" width="20" height="20" as="geometry" />
        </mxCell>
        <mxCell id="NwYy4THHCrTFuShZawKr-5" value="&lt;b style=&quot;border-color: var(--border-color); text-align: left;&quot;&gt;&lt;font color=&quot;#0000ff&quot; style=&quot;border-color: var(--border-color); background-color: rgb(255, 244, 195);&quot;&gt;Availablity zone 1 : us-east-1a&lt;/font&gt;&lt;/b&gt;" style="text;html=1;strokeColor=none;fillColor=none;align=center;verticalAlign=middle;whiteSpace=wrap;rounded=0;shadow=0;" vertex="1" parent="NwYy4THHCrTFuShZawKr-2">
          <mxGeometry x="245" y="60" width="210" height="30" as="geometry" />
        </mxCell>
        <mxCell id="NwYy4THHCrTFuShZawKr-10" style="edgeStyle=orthogonalEdgeStyle;rounded=0;orthogonalLoop=1;jettySize=auto;html=1;exitX=1;exitY=1;exitDx=0;exitDy=0;entryX=0.3;entryY=1.35;entryDx=0;entryDy=0;entryPerimeter=0;" edge="1" parent="NwYy4THHCrTFuShZawKr-2">
          <mxGeometry relative="1" as="geometry">
            <mxPoint x="81.07106781186553" y="122.53106781186553" as="sourcePoint" />
            <mxPoint x="70" y="132.45999999999998" as="targetPoint" />
          </mxGeometry>
        </mxCell>
        <mxCell id="NwYy4THHCrTFuShZawKr-14" value="Private subnet - AZ1 - 10.0.2.0/24" style="points=[[0,0],[0.25,0],[0.5,0],[0.75,0],[1,0],[1,0.25],[1,0.5],[1,0.75],[1,1],[0.75,1],[0.5,1],[0.25,1],[0,1],[0,0.75],[0,0.5],[0,0.25]];outlineConnect=0;gradientColor=none;html=1;whiteSpace=wrap;fontSize=12;fontStyle=0;container=1;pointerEvents=0;collapsible=0;recursiveResize=0;shape=mxgraph.aws4.group;grIcon=mxgraph.aws4.group_security_group;grStroke=0;strokeColor=#00A4A6;fillColor=#E6F6F7;verticalAlign=top;align=left;spacingLeft=30;fontColor=#147EBA;dashed=0;" vertex="1" parent="NwYy4THHCrTFuShZawKr-2">
          <mxGeometry x="230" y="90" width="230" height="180" as="geometry" />
        </mxCell>
        <mxCell id="NwYy4THHCrTFuShZawKr-16" value="" style="sketch=0;points=[[0,0,0],[0.25,0,0],[0.5,0,0],[0.75,0,0],[1,0,0],[0,1,0],[0.25,1,0],[0.5,1,0],[0.75,1,0],[1,1,0],[0,0.25,0],[0,0.5,0],[0,0.75,0],[1,0.25,0],[1,0.5,0],[1,0.75,0]];outlineConnect=0;fontColor=#232F3E;fillColor=#ED7100;strokeColor=#ffffff;dashed=0;verticalLabelPosition=bottom;verticalAlign=top;align=center;html=1;fontSize=12;fontStyle=0;aspect=fixed;shape=mxgraph.aws4.resourceIcon;resIcon=mxgraph.aws4.ec2;" vertex="1" parent="NwYy4THHCrTFuShZawKr-14">
          <mxGeometry x="71" y="46" width="78" height="78" as="geometry" />
        </mxCell>
        <mxCell id="NwYy4THHCrTFuShZawKr-19" value="Web server" style="text;html=1;strokeColor=none;fillColor=none;align=center;verticalAlign=middle;whiteSpace=wrap;rounded=0;" vertex="1" parent="NwYy4THHCrTFuShZawKr-14">
          <mxGeometry x="80" y="124" width="70" height="30" as="geometry" />
        </mxCell>
        <mxCell id="NwYy4THHCrTFuShZawKr-6" value="Public subnet - AZ1: 10.0.1.0/24" style="points=[[0,0],[0.25,0],[0.5,0],[0.75,0],[1,0],[1,0.25],[1,0.5],[1,0.75],[1,1],[0.75,1],[0.5,1],[0.25,1],[0,1],[0,0.75],[0,0.5],[0,0.25]];outlineConnect=0;gradientColor=none;html=1;whiteSpace=wrap;fontSize=12;fontStyle=0;container=1;pointerEvents=0;collapsible=0;recursiveResize=0;shape=mxgraph.aws4.group;grIcon=mxgraph.aws4.group_security_group;grStroke=0;strokeColor=#7AA116;fillColor=#F2F6E8;verticalAlign=top;align=left;spacingLeft=30;fontColor=#248814;dashed=0;" vertex="1" parent="NwYy4THHCrTFuShZawKr-2">
          <mxGeometry x="15" y="90" width="210" height="180" as="geometry" />
        </mxCell>
        <mxCell id="NwYy4THHCrTFuShZawKr-13" value="" style="outlineConnect=0;dashed=0;verticalLabelPosition=bottom;verticalAlign=top;align=center;html=1;shape=mxgraph.aws3.vpc_nat_gateway;fillColor=#F58534;gradientColor=none;" vertex="1" parent="NwYy4THHCrTFuShZawKr-6">
          <mxGeometry x="71" y="49" width="69" height="72" as="geometry" />
        </mxCell>
        <mxCell id="NwYy4THHCrTFuShZawKr-18" value="NAT gateway" style="text;html=1;strokeColor=none;fillColor=none;align=center;verticalAlign=middle;whiteSpace=wrap;rounded=0;" vertex="1" parent="NwYy4THHCrTFuShZawKr-6">
          <mxGeometry x="80" y="120" width="60" height="30" as="geometry" />
        </mxCell>
        <mxCell id="NwYy4THHCrTFuShZawKr-9" value="3" style="ellipse;whiteSpace=wrap;html=1;aspect=fixed;strokeWidth=2;fontFamily=Tahoma;spacingBottom=4;spacingRight=2;strokeColor=#6c8ebf;fillColor=#dae8fc;gradientColor=#7ea6e0;" vertex="1" parent="NwYy4THHCrTFuShZawKr-6">
          <mxGeometry y="160" width="20" height="20" as="geometry" />
        </mxCell>
        <mxCell id="NwYy4THHCrTFuShZawKr-20" value="Private subnet - AZ1 - 10.0.3.0/24" style="points=[[0,0],[0.25,0],[0.5,0],[0.75,0],[1,0],[1,0.25],[1,0.5],[1,0.75],[1,1],[0.75,1],[0.5,1],[0.25,1],[0,1],[0,0.75],[0,0.5],[0,0.25]];outlineConnect=0;gradientColor=none;html=1;whiteSpace=wrap;fontSize=12;fontStyle=0;container=1;pointerEvents=0;collapsible=0;recursiveResize=0;shape=mxgraph.aws4.group;grIcon=mxgraph.aws4.group_security_group;grStroke=0;strokeColor=#00A4A6;fillColor=#E6F6F7;verticalAlign=top;align=left;spacingLeft=30;fontColor=#147EBA;dashed=0;" vertex="1" parent="NwYy4THHCrTFuShZawKr-2">
          <mxGeometry x="470" y="90" width="360" height="180" as="geometry" />
        </mxCell>
        <mxCell id="NwYy4THHCrTFuShZawKr-22" value="Database" style="text;html=1;strokeColor=none;fillColor=none;align=center;verticalAlign=middle;whiteSpace=wrap;rounded=0;" vertex="1" parent="NwYy4THHCrTFuShZawKr-20">
          <mxGeometry x="80" y="124" width="70" height="30" as="geometry" />
        </mxCell>
        <mxCell id="NwYy4THHCrTFuShZawKr-24" value="" style="image;html=1;image=img/lib/clip_art/computers/Database_Remove_128x128.png" vertex="1" parent="NwYy4THHCrTFuShZawKr-20">
          <mxGeometry x="75" y="44" width="80" height="80" as="geometry" />
        </mxCell>
        <mxCell id="NwYy4THHCrTFuShZawKr-37" value="" style="sketch=0;outlineConnect=0;fontColor=#232F3E;gradientColor=none;fillColor=#8C4FFF;strokeColor=none;dashed=0;verticalLabelPosition=bottom;verticalAlign=top;align=center;html=1;fontSize=12;fontStyle=0;aspect=fixed;pointerEvents=1;shape=mxgraph.aws4.elastic_network_adapter;" vertex="1" parent="NwYy4THHCrTFuShZawKr-20">
          <mxGeometry x="230" y="51" width="78" height="78" as="geometry" />
        </mxCell>
        <mxCell id="NwYy4THHCrTFuShZawKr-7" value="" style="sketch=0;outlineConnect=0;fontColor=#232F3E;gradientColor=none;fillColor=#8C4FFF;strokeColor=none;dashed=0;verticalLabelPosition=bottom;verticalAlign=top;align=center;html=1;fontSize=12;fontStyle=0;aspect=fixed;pointerEvents=1;shape=mxgraph.aws4.internet_gateway;" vertex="1" parent="NwYy4THHCrTFuShZawKr-2">
          <mxGeometry x="-25" y="310" width="40" height="40" as="geometry" />
        </mxCell>
        <mxCell id="NwYy4THHCrTFuShZawKr-25" value="Private subnet - AZ2 - 10.0.6.0/24" style="points=[[0,0],[0.25,0],[0.5,0],[0.75,0],[1,0],[1,0.25],[1,0.5],[1,0.75],[1,1],[0.75,1],[0.5,1],[0.25,1],[0,1],[0,0.75],[0,0.5],[0,0.25]];outlineConnect=0;gradientColor=none;html=1;whiteSpace=wrap;fontSize=12;fontStyle=0;container=1;pointerEvents=0;collapsible=0;recursiveResize=0;shape=mxgraph.aws4.group;grIcon=mxgraph.aws4.group_security_group;grStroke=0;strokeColor=#00A4A6;fillColor=#E6F6F7;verticalAlign=top;align=left;spacingLeft=30;fontColor=#147EBA;dashed=0;" vertex="1" parent="NwYy4THHCrTFuShZawKr-2">
          <mxGeometry x="470" y="430" width="360" height="180" as="geometry" />
        </mxCell>
        <mxCell id="NwYy4THHCrTFuShZawKr-26" value="Database" style="text;html=1;strokeColor=none;fillColor=none;align=center;verticalAlign=middle;whiteSpace=wrap;rounded=0;" vertex="1" parent="NwYy4THHCrTFuShZawKr-25">
          <mxGeometry x="80" y="124" width="70" height="30" as="geometry" />
        </mxCell>
        <mxCell id="NwYy4THHCrTFuShZawKr-27" value="" style="image;html=1;image=img/lib/clip_art/computers/Database_Remove_128x128.png" vertex="1" parent="NwYy4THHCrTFuShZawKr-25">
          <mxGeometry x="75" y="44" width="80" height="80" as="geometry" />
        </mxCell>
        <mxCell id="NwYy4THHCrTFuShZawKr-38" value="" style="sketch=0;outlineConnect=0;fontColor=#232F3E;gradientColor=none;fillColor=#8C4FFF;strokeColor=none;dashed=0;verticalLabelPosition=bottom;verticalAlign=top;align=center;html=1;fontSize=12;fontStyle=0;aspect=fixed;pointerEvents=1;shape=mxgraph.aws4.elastic_network_adapter;" vertex="1" parent="NwYy4THHCrTFuShZawKr-25">
          <mxGeometry x="222" y="51" width="78" height="78" as="geometry" />
        </mxCell>
        <mxCell id="NwYy4THHCrTFuShZawKr-43" value="mount target" style="text;html=1;strokeColor=none;fillColor=none;align=center;verticalAlign=middle;whiteSpace=wrap;rounded=0;" vertex="1" parent="NwYy4THHCrTFuShZawKr-25">
          <mxGeometry x="236" y="144" width="70" height="30" as="geometry" />
        </mxCell>
        <mxCell id="NwYy4THHCrTFuShZawKr-28" value="Private subnet - AZ2 - 10.0.5.0/24" style="points=[[0,0],[0.25,0],[0.5,0],[0.75,0],[1,0],[1,0.25],[1,0.5],[1,0.75],[1,1],[0.75,1],[0.5,1],[0.25,1],[0,1],[0,0.75],[0,0.5],[0,0.25]];outlineConnect=0;gradientColor=none;html=1;whiteSpace=wrap;fontSize=12;fontStyle=0;container=1;pointerEvents=0;collapsible=0;recursiveResize=0;shape=mxgraph.aws4.group;grIcon=mxgraph.aws4.group_security_group;grStroke=0;strokeColor=#00A4A6;fillColor=#E6F6F7;verticalAlign=top;align=left;spacingLeft=30;fontColor=#147EBA;dashed=0;" vertex="1" parent="NwYy4THHCrTFuShZawKr-2">
          <mxGeometry x="230" y="430" width="230" height="180" as="geometry" />
        </mxCell>
        <mxCell id="NwYy4THHCrTFuShZawKr-29" value="" style="sketch=0;points=[[0,0,0],[0.25,0,0],[0.5,0,0],[0.75,0,0],[1,0,0],[0,1,0],[0.25,1,0],[0.5,1,0],[0.75,1,0],[1,1,0],[0,0.25,0],[0,0.5,0],[0,0.75,0],[1,0.25,0],[1,0.5,0],[1,0.75,0]];outlineConnect=0;fontColor=#232F3E;fillColor=#ED7100;strokeColor=#ffffff;dashed=0;verticalLabelPosition=bottom;verticalAlign=top;align=center;html=1;fontSize=12;fontStyle=0;aspect=fixed;shape=mxgraph.aws4.resourceIcon;resIcon=mxgraph.aws4.ec2;" vertex="1" parent="NwYy4THHCrTFuShZawKr-28">
          <mxGeometry x="71" y="46" width="78" height="78" as="geometry" />
        </mxCell>
        <mxCell id="NwYy4THHCrTFuShZawKr-30" value="Web server" style="text;html=1;strokeColor=none;fillColor=none;align=center;verticalAlign=middle;whiteSpace=wrap;rounded=0;" vertex="1" parent="NwYy4THHCrTFuShZawKr-28">
          <mxGeometry x="80" y="124" width="70" height="30" as="geometry" />
        </mxCell>
        <mxCell id="NwYy4THHCrTFuShZawKr-32" value="Public subnet - AZ2: 10.0.4.0/24" style="points=[[0,0],[0.25,0],[0.5,0],[0.75,0],[1,0],[1,0.25],[1,0.5],[1,0.75],[1,1],[0.75,1],[0.5,1],[0.25,1],[0,1],[0,0.75],[0,0.5],[0,0.25]];outlineConnect=0;gradientColor=none;html=1;whiteSpace=wrap;fontSize=12;fontStyle=0;container=1;pointerEvents=0;collapsible=0;recursiveResize=0;shape=mxgraph.aws4.group;grIcon=mxgraph.aws4.group_security_group;grStroke=0;strokeColor=#7AA116;fillColor=#F2F6E8;verticalAlign=top;align=left;spacingLeft=30;fontColor=#248814;dashed=0;" vertex="1" parent="NwYy4THHCrTFuShZawKr-2">
          <mxGeometry x="15" y="430" width="210" height="180" as="geometry" />
        </mxCell>
        <mxCell id="NwYy4THHCrTFuShZawKr-33" value="" style="outlineConnect=0;dashed=0;verticalLabelPosition=bottom;verticalAlign=top;align=center;html=1;shape=mxgraph.aws3.vpc_nat_gateway;fillColor=#F58534;gradientColor=none;" vertex="1" parent="NwYy4THHCrTFuShZawKr-32">
          <mxGeometry x="71" y="49" width="69" height="72" as="geometry" />
        </mxCell>
        <mxCell id="NwYy4THHCrTFuShZawKr-34" value="NAT gateway" style="text;html=1;strokeColor=none;fillColor=none;align=center;verticalAlign=middle;whiteSpace=wrap;rounded=0;" vertex="1" parent="NwYy4THHCrTFuShZawKr-32">
          <mxGeometry x="80" y="120" width="60" height="30" as="geometry" />
        </mxCell>
        <mxCell id="NwYy4THHCrTFuShZawKr-36" value="&lt;b style=&quot;border-color: var(--border-color); text-align: left;&quot;&gt;&lt;font color=&quot;#0000ff&quot; style=&quot;border-color: var(--border-color); background-color: rgb(255, 244, 195);&quot;&gt;Availablity zone 2 : us-east-1b&lt;/font&gt;&lt;/b&gt;" style="text;html=1;strokeColor=none;fillColor=none;align=center;verticalAlign=middle;whiteSpace=wrap;rounded=0;shadow=0;" vertex="1" parent="NwYy4THHCrTFuShZawKr-2">
          <mxGeometry x="240" y="400" width="210" height="30" as="geometry" />
        </mxCell>
        <mxCell id="NwYy4THHCrTFuShZawKr-46" style="edgeStyle=orthogonalEdgeStyle;rounded=0;orthogonalLoop=1;jettySize=auto;html=1;startArrow=classic;startFill=1;" edge="1" parent="NwYy4THHCrTFuShZawKr-2" source="NwYy4THHCrTFuShZawKr-16" target="NwYy4THHCrTFuShZawKr-37">
          <mxGeometry relative="1" as="geometry">
            <Array as="points">
              <mxPoint x="440" y="175" />
              <mxPoint x="440" y="300" />
              <mxPoint x="739" y="300" />
            </Array>
          </mxGeometry>
        </mxCell>
        <mxCell id="NwYy4THHCrTFuShZawKr-42" value="" style="outlineConnect=0;dashed=0;verticalLabelPosition=bottom;verticalAlign=top;align=center;html=1;shape=mxgraph.aws3.efs_share;fillColor=#E05243;gradientColor=none;" vertex="1" parent="NwYy4THHCrTFuShZawKr-1">
          <mxGeometry x="960" y="358.5" width="69" height="63" as="geometry" />
        </mxCell>
        <mxCell id="NwYy4THHCrTFuShZawKr-40" value="EFS file system" style="text;html=1;strokeColor=none;fillColor=none;align=center;verticalAlign=middle;whiteSpace=wrap;rounded=0;" vertex="1" parent="NwYy4THHCrTFuShZawKr-1">
          <mxGeometry x="960" y="430" width="100" height="30" as="geometry" />
        </mxCell>
        <mxCell id="NwYy4THHCrTFuShZawKr-44" style="edgeStyle=orthogonalEdgeStyle;rounded=0;orthogonalLoop=1;jettySize=auto;html=1;startArrow=classic;startFill=1;" edge="1" parent="NwYy4THHCrTFuShZawKr-1" source="NwYy4THHCrTFuShZawKr-38" target="NwYy4THHCrTFuShZawKr-40">
          <mxGeometry relative="1" as="geometry" />
        </mxCell>
        <mxCell id="NwYy4THHCrTFuShZawKr-45" style="edgeStyle=orthogonalEdgeStyle;rounded=0;orthogonalLoop=1;jettySize=auto;html=1;entryX=0.5;entryY=0;entryDx=0;entryDy=0;entryPerimeter=0;startArrow=classic;startFill=1;" edge="1" parent="NwYy4THHCrTFuShZawKr-1" source="NwYy4THHCrTFuShZawKr-37" target="NwYy4THHCrTFuShZawKr-42">
          <mxGeometry relative="1" as="geometry" />
        </mxCell>
      </root>
    </mxGraphModel>
  </diagram>
</mxfile>
